<svg width="45" height="45" viewBox="0 0 45 45" fill="none" xmlns="http://www.w3.org/2000/svg">

<!--    Ai-->
    <g id = "ai">
        <path d="M4.45654 4.9458H40.5494V40.0542H4.45654V4.9458Z" fill="#1C0A00"/>
        <path d="M4.45641 4.94578H40.5492V40.0542H4.45641V4.94578ZM2.8125 41.6953H42.1875V3.30469H2.8125V41.6953ZM28.6031 16.9875C28.6031 16.8567 28.6523 16.7906 28.8 16.7906H31.3763C31.507 16.7906 31.5731 16.8398 31.5731 16.9875V29.932C31.5731 30.0628 31.5408 30.1289 31.3763 30.1289H28.8352C28.6706 30.1289 28.6214 30.0473 28.6214 29.9152V16.9875H28.6045H28.6031ZM28.4231 13.2638C28.4231 12.8199 28.5994 12.3943 28.9133 12.0805C29.2271 11.7666 29.6527 11.5903 30.0966 11.5903C30.5404 11.5903 30.966 11.7666 31.2799 12.0805C31.5937 12.3943 31.77 12.8199 31.77 13.2638C31.7862 13.4905 31.753 13.718 31.6725 13.9306C31.5921 14.1432 31.4663 14.3357 31.3041 14.4949C31.1418 14.6541 30.9469 14.7761 30.7328 14.8525C30.5187 14.9288 30.2906 14.9577 30.0642 14.9372C29.8424 14.9511 29.6202 14.9171 29.4128 14.8374C29.2053 14.7577 29.0175 14.6343 28.862 14.4755C28.7066 14.3167 28.5871 14.1263 28.5119 13.9172C28.4366 13.7081 28.4073 13.4852 28.4259 13.2638H28.4231ZM21.0403 22.3861C20.5805 20.558 19.4934 16.5952 19.0884 14.6756H19.0561C18.7116 16.5952 17.8425 19.8436 17.1534 22.3861H21.0403ZM16.4798 25.0439L15.1833 29.9658C15.1509 30.0966 15.1017 30.1303 14.9372 30.1303H12.5283C12.3638 30.1303 12.3314 30.0811 12.3637 29.8842L17.0227 13.5717C17.1361 13.127 17.1914 12.6694 17.1872 12.2105C17.1872 12.0952 17.2364 12.0459 17.318 12.0459H20.7633C20.8786 12.0459 20.9278 12.0783 20.9602 12.2105L26.1773 29.9123C26.2097 30.0431 26.1773 30.1261 26.0466 30.1261H23.3227C23.1919 30.1261 23.1089 30.0938 23.0766 29.9855L21.7308 25.0467H16.4813L16.4798 25.0439Z" fill="#FF7F18"/>
    </g>

<!--    Ps-->
    <g id= "ps">
        <path d="M4.45361 4.9458H40.5464V40.0542H4.45361V4.9458Z" fill="#0C0824"/>
        <path d="M4.45359 4.94578H40.5464V40.0542H4.45359V4.94578ZM2.8125 41.6953H42.1875V3.30469H2.8125V41.6953ZM29.3583 19.0547C28.0617 19.0547 27.6187 19.7114 27.6187 20.2528C27.6187 20.8434 27.9141 21.2541 29.6536 22.1555C32.2298 23.4028 33.0286 24.5995 33.0286 26.3559C33.0286 28.9814 31.0275 30.3919 28.3205 30.3919C27.1587 30.4349 26.004 30.1936 24.9567 29.6887C24.8414 29.6395 24.8259 29.558 24.8259 29.4258V27.0112C24.8259 26.8467 24.9075 26.7975 25.0228 26.8805C26.0063 27.5129 27.1512 27.8488 28.3205 27.848C29.617 27.848 30.1584 27.3066 30.1584 26.5683C30.1584 25.9777 29.7816 25.4531 28.1236 24.5995C25.7934 23.4844 24.8259 22.3495 24.8259 20.4652C24.8259 18.3488 26.4825 16.5938 29.3541 16.5938C30.3536 16.5508 31.3517 16.7071 32.2903 17.0536C32.3444 17.0887 32.3881 17.1375 32.417 17.1951C32.4459 17.2527 32.459 17.3169 32.4548 17.3813V19.6313C32.4548 19.762 32.3733 19.845 32.2087 19.7958C31.3413 19.2964 30.3548 19.0413 29.3541 19.0575L29.3583 19.0547ZM15.248 21.0066C15.6248 21.0389 15.9202 21.0389 16.5769 21.0389C18.4964 21.0389 20.3006 20.3667 20.3006 17.7581C20.3006 15.6741 19.0041 14.625 16.823 14.625C16.1663 14.625 15.5433 14.6573 15.248 14.6742V21.0066ZM12.3272 12.2878C12.3272 12.1725 12.5564 12.0909 12.6886 12.0909C14.0988 12.0333 15.51 12.0061 16.9214 12.0094C21.4664 12.0094 23.2383 14.5027 23.2383 17.6864C23.2383 21.8531 20.2191 23.6419 16.5122 23.6419C15.8892 23.6419 15.6755 23.6095 15.2325 23.6095V29.9095C15.2325 30.0403 15.1833 30.1064 15.0356 30.1064H12.5255C12.3947 30.1064 12.3286 30.0572 12.3286 29.9095V12.2948L12.3272 12.2878Z" fill="#31C5F0"/>
    </g>

<!--    Figma-->
    <g id="figma">
        <metadata>
            Created by potrace 1.16, written by Peter Selinger 2001-2019
        </metadata>
        <g transform="translate(0.000000,45.000000) scale(0.100000,-0.100000)"
           fill="#000000" stroke="none">
            <path d="M0 225 l0 -225 225 0 225 0 0 225 0 225 -225 0 -225 0 0 -225z m430
0 l0 -205 -205 0 -205 0 0 205 0 205 205 0 205 0 0 -205z"/>
        </g>
    </g>

<!--    Kavychki-->
    <g id="kavychki">
        <path d="M46.9456 6.13191L42.9568 0C15.3417 18.549 0 41.0838 0 59.6328C0 77.5686 13.1939 86 24.3933 86C38.5077 86 48.4798 74.0428 48.4798 61.4724C48.4798 50.8948 41.7294 41.8503 32.6778 38.4777C30.0697 37.5579 27.6151 36.7914 27.6151 32.3458C27.6151 26.6738 31.7573 18.2424 46.9456 6.13191ZM107.852 6.13191L103.863 0C76.5551 18.549 60.9066 41.0838 60.9066 59.6328C60.9066 77.5686 74.4073 86 85.6067 86C99.8745 86 110 74.0428 110 61.4724C110 50.8948 103.096 41.8503 93.7378 38.4777C91.1297 37.5579 88.8285 36.7914 88.8285 32.3458C88.8285 26.6738 93.1241 18.2424 107.852 6.13191Z" fill="#FEC5CE"/>
    </g>

<!--    Messages-->
    <g id="messages">
        <path fill-rule="evenodd" clip-rule="evenodd" d="M20.868 6.47395H2.981L11.924 13.4894L20.868 6.47395ZM0 6.47395C0.00237401 5.73045 0.317205 5.01803 0.875737 4.49229C1.43427 3.96655 2.19112 3.6702 2.981 3.66797L20.868 3.66797C21.6579 3.6702 22.4147 3.96655 22.9733 4.49229C23.5318 5.01803 23.8466 5.73045 23.849 6.47395V17.6979C23.8466 18.4414 23.5318 19.1538 22.9733 19.6795C22.4147 20.2053 21.6579 20.5016 20.868 20.5039H2.981C2.19112 20.5016 1.43427 20.2053 0.875737 19.6795C0.317205 19.1538 0.00237401 18.4414 0 17.6979L0 6.47395Z" fill="#F8EEEF"/>
    </g>

<!--    Phone-->
    <g id="phone">
        <path d="M13.858 16.0729L16.417 13.8675C16.5009 13.7914 16.6018 13.7339 16.7124 13.6992C16.8229 13.6645 16.9403 13.6535 17.056 13.667L17.482 13.8675L23.444 16.473C23.87 16.6735 23.87 16.874 23.87 17.275C23.8565 17.9527 23.6992 18.621 23.4072 19.2406C23.1153 19.8602 22.6946 20.4186 22.17 20.8829C21.5776 21.4196 20.8761 21.8379 20.1076 22.1129C19.3391 22.3879 18.5195 22.5138 17.698 22.4831C15.6199 22.4715 13.5752 21.9902 11.736 21.0797C9.56765 19.9977 7.56034 18.6514 5.766 17.0754C4.5807 15.6861 3.51277 14.2117 2.572 12.6655C1.72691 11.2568 1.01452 9.78121 0.442996 8.25554C0.0912664 7.01498 -0.0524657 5.73033 0.0169965 4.44802C0.157232 3.32092 0.680145 2.26651 1.508 1.44155C2.64648 0.552618 4.07395 0.0573397 5.553 0.0380859C5.71778 0.0409482 5.8798 0.0784389 6.02721 0.147817C6.17462 0.217195 6.30369 0.316706 6.405 0.439075L9.599 6.05104C9.62133 6.20308 9.69617 6.34399 9.812 6.45203C9.82635 6.56089 9.81467 6.6714 9.77782 6.77546C9.74097 6.87953 9.67987 6.97453 9.599 7.05351L6.831 9.45851C6.72459 9.60648 6.66773 9.78106 6.66773 9.95974C6.66773 10.1384 6.72459 10.313 6.831 10.461C7.56107 11.6112 8.41743 12.6861 9.386 13.668C10.4243 14.6436 11.5659 15.5166 12.793 16.2734C13.217 16.4739 13.645 16.4739 13.858 16.0729Z" fill="#F8EEEF"/>
    </g>

<!--    Soschial-->
    <g id="soschial">
        <path d="M186.149 11.9134C186.149 5.71258 180.741 0.688965 174.075 0.688965C167.405 0.688965 162 5.71258 162 11.9134C162 17.5143 166.414 22.1584 172.188 22.9996V15.1586H169.122V11.9141H172.188V9.43979C172.188 6.62737 173.988 5.0742 176.747 5.0742C178.068 5.0742 179.452 5.29307 179.452 5.29307V8.05498H177.927C176.429 8.05498 175.961 8.92136 175.961 9.80879V11.9134H179.31L178.772 15.1579H175.961V22.9989C181.731 22.1577 186.149 17.5143 186.149 11.9134Z" fill="#F8EEEF"/>
        <path d="M12 0.688965C5.37321 0.688965 0 5.68395 0 11.8443C0 18.0046 5.37321 22.9996 12 22.9996C18.6268 22.9996 24 18.0046 24 11.8443C24 5.68395 18.6268 0.688965 12 0.688965ZM17.767 9.09777C17.775 9.2148 17.775 9.33681 17.775 9.45633C17.775 13.1117 14.7804 17.3223 9.30804 17.3223C7.62054 17.3223 6.05625 16.8666 4.73839 16.0823C4.97946 16.1072 5.20982 16.1171 5.45625 16.1171C6.84911 16.1171 8.12946 15.6789 9.15 14.9369C7.84286 14.912 6.74464 14.1152 6.36964 13.0196C6.82768 13.0818 7.24018 13.0818 7.71161 12.9698C7.03855 12.8426 6.43359 12.5028 5.99951 12.0081C5.56542 11.5133 5.32898 10.8941 5.33036 10.2556V10.2208C5.72411 10.4274 6.1875 10.5544 6.67232 10.5719C6.26476 10.3194 5.93051 9.97727 5.69923 9.57593C5.46794 9.17458 5.34676 8.72639 5.34643 8.27108C5.34643 7.75565 5.49107 7.28503 5.75089 6.87667C6.49795 7.73158 7.43017 8.4308 8.48696 8.92886C9.54375 9.42692 10.7014 9.71269 11.8848 9.76758C11.4643 7.88762 12.975 6.36621 14.7911 6.36621C15.6482 6.36621 16.4196 6.69988 16.9634 7.23772C17.6357 7.12069 18.2786 6.88663 18.8518 6.57289C18.6295 7.21282 18.1634 7.75316 17.5446 8.09429C18.1446 8.03453 18.7232 7.88015 19.2589 7.66352C18.8545 8.2163 18.3482 8.70683 17.767 9.09777Z" fill="#F8EEEF"/>
        <path d="M65.997 8.12425C63.7935 8.12425 61.9953 9.79588 61.9953 11.8443C61.9953 13.8926 63.7935 15.5643 65.997 15.5643C68.2005 15.5643 69.9987 13.8926 69.9987 11.8443C69.9987 9.79588 68.2005 8.12425 65.997 8.12425ZM77.9991 11.8443C77.9991 10.3038 78.0141 8.77727 77.9211 7.23959C77.828 5.45354 77.3897 3.86841 75.9847 2.56236C74.5768 1.25352 72.8746 0.848865 70.9533 0.762353C69.2962 0.675841 67.6541 0.689795 66 0.689795C64.3429 0.689795 62.7008 0.675841 61.0467 0.762353C59.1254 0.848865 57.4202 1.25631 56.0153 2.56236C54.6073 3.8712 54.172 5.45354 54.0789 7.23959C53.9859 8.78006 54.0009 10.3066 54.0009 11.8443C54.0009 13.3819 53.9859 14.9113 54.0789 16.4489C54.172 18.235 54.6103 19.8201 56.0153 21.1262C57.4232 22.435 59.1254 22.8397 61.0467 22.9262C62.7038 23.0127 64.3459 22.9987 66 22.9987C67.6571 22.9987 69.2992 23.0127 70.9533 22.9262C72.8746 22.8397 74.5798 22.4322 75.9847 21.1262C77.3927 19.8173 77.828 18.235 77.9211 16.4489C78.0171 14.9113 77.9991 13.3847 77.9991 11.8443ZM65.997 17.568C62.5897 17.568 59.8398 15.0117 59.8398 11.8443C59.8398 8.67681 62.5897 6.12052 65.997 6.12052C69.4043 6.12052 72.1542 8.67681 72.1542 11.8443C72.1542 15.0117 69.4043 17.568 65.997 17.568ZM72.4063 7.22285C71.6108 7.22285 70.9684 6.62563 70.9684 5.8861C70.9684 5.14656 71.6108 4.54935 72.4063 4.54935C73.2019 4.54935 73.8443 5.14656 73.8443 5.8861C73.8445 6.0617 73.8075 6.23563 73.7353 6.39791C73.6631 6.56019 73.5572 6.70764 73.4237 6.83181C73.2901 6.95599 73.1315 7.05444 72.9569 7.12154C72.7823 7.18864 72.5952 7.22307 72.4063 7.22285Z" fill="#F8EEEF"/>
        <path d="M120 0.688965C113.371 0.688965 108 5.68186 108 11.8443C108 18.0067 113.371 22.9996 120 22.9996C126.63 22.9996 132 18.0067 132 11.8443C132 5.68186 126.63 0.688965 120 0.688965ZM128.202 15.933C128.033 16.2974 127.326 16.5628 126.034 16.7517C125.967 16.8372 125.913 17.1925 125.826 17.4669C125.773 17.6333 125.647 17.7323 125.434 17.7323H125.425C125.125 17.7323 124.805 17.6018 124.176 17.6018C123.325 17.6018 123.03 17.7818 122.367 18.2181C121.665 18.6814 120.992 19.0772 119.986 19.0367C118.97 19.1087 118.118 18.5329 117.639 18.2181C116.971 17.7818 116.681 17.6018 115.83 17.6018C115.225 17.6018 114.842 17.7413 114.581 17.7413C114.32 17.7413 114.218 17.5928 114.18 17.4714C114.092 17.197 114.039 16.8372 113.971 16.7517C113.304 16.6572 111.804 16.4143 111.77 15.7891C111.76 15.6272 111.881 15.4832 112.055 15.4562C114.296 15.1144 115.302 12.9778 115.346 12.8878C115.346 12.8833 115.35 12.8788 115.355 12.8743C115.476 12.6494 115.5 12.4605 115.433 12.3121C115.268 11.9567 114.567 11.8308 114.271 11.7183C113.507 11.4394 113.4 11.1156 113.449 10.8952C113.526 10.5128 114.146 10.2744 114.509 10.4319C114.794 10.5578 115.05 10.6208 115.268 10.6208C115.428 10.6208 115.534 10.5848 115.588 10.5578C115.52 9.48276 115.36 7.9489 115.771 7.08977C116.86 4.82722 119.163 4.6473 119.841 4.6473C119.87 4.6473 120.136 4.6428 120.165 4.6428C121.844 4.6428 123.455 5.44346 124.244 7.08527C124.655 7.94441 124.496 9.47376 124.428 10.5533C124.481 10.5803 124.568 10.6118 124.704 10.6163C124.912 10.6073 125.149 10.5443 125.415 10.4274C125.609 10.3419 125.88 10.3554 126.073 10.4274C126.378 10.5308 126.571 10.7332 126.576 10.9626C126.581 11.255 126.3 11.5069 125.744 11.7093C125.676 11.7363 125.594 11.7588 125.507 11.7858C125.192 11.8802 124.713 12.0197 124.588 12.3031C124.52 12.4515 124.549 12.6404 124.665 12.8653C124.67 12.8698 124.67 12.8743 124.675 12.8788C124.718 12.9688 125.725 15.1054 127.965 15.4472C128.159 15.4922 128.309 15.6946 128.202 15.933Z" fill="#F8EEEF"/>
        <path d="M249.676 4.17411C249.481 3.49924 249.099 2.8838 248.568 2.38939C248.037 1.89497 247.375 1.53892 246.65 1.35686C243.978 0.688965 233.27 0.688965 233.27 0.688965C233.27 0.688965 222.562 0.688965 219.89 1.35331C219.164 1.53477 218.502 1.89063 217.971 2.38514C217.44 2.87965 217.058 3.4954 216.864 4.17055C216.149 6.6574 216.149 11.8443 216.149 11.8443C216.149 11.8443 216.149 17.0311 216.864 19.5144C217.257 20.8857 218.419 21.9657 219.89 22.3317C222.562 22.9996 233.27 22.9996 233.27 22.9996C233.27 22.9996 243.978 22.9996 246.65 22.3317C248.125 21.9657 249.283 20.8857 249.676 19.5144C250.391 17.0311 250.391 11.8443 250.391 11.8443C250.391 11.8443 250.391 6.6574 249.676 4.17411ZM229.869 16.6048V7.08372L238.735 11.8087L229.869 16.6048Z" fill="#F8EEEF"/>
    </g>

<!--    Logo-->
    <g id="logo">
        <path d="M2.97461 3.48047V23.959H8.10742H8.125C9.50781 23.959 10.709 23.4609 11.7285 22.4648C12.7363 21.4805 13.2402 20.2852 13.2402 18.8789V8.54297C13.2402 7.14844 12.7363 5.95312 11.7285 4.95703C10.7207 3.96094 9.51953 3.46289 8.125 3.46289H8.10742L2.97461 3.48047ZM8.10742 26.6484H0.162109V2.00391L2.97461 0.773438H8.10742H8.125C10.3164 0.773438 12.1855 1.54102 13.7324 3.07617C15.2793 4.59961 16.0527 6.43945 16.0527 8.5957V18.8262C16.0527 20.9824 15.2793 22.8281 13.7324 24.3633C12.1855 25.8867 10.3164 26.6484 8.125 26.6484H8.10742ZM20.3945 27V8.26172C20.3945 6.10547 21.168 4.26562 22.7148 2.74219C24.2617 1.20703 26.1309 0.439453 28.3223 0.439453C30.5137 0.439453 32.3828 1.20703 33.9297 2.74219C35.4766 4.26562 36.25 6.10547 36.25 8.26172V25.7695L33.4375 27V15.1348H23.207V25.7695L20.3945 27ZM23.207 12.3223H33.4375V8.20898C33.4258 6.80273 32.9219 5.60742 31.9258 4.62305C30.918 3.62695 29.7168 3.12891 28.3223 3.12891C26.916 3.12891 25.709 3.62695 24.7012 4.62305C23.7051 5.60742 23.207 6.78516 23.207 8.15625V8.20898V12.3223ZM40.3633 27V5.2207C40.3633 3.9082 40.832 2.7832 41.7695 1.8457C42.707 0.908203 43.8379 0.439453 45.1621 0.439453C46.5332 0.439453 47.6641 0.896484 48.5547 1.81055C49.4922 0.896484 50.6172 0.439453 51.9297 0.439453C53.3359 0.439453 54.4785 0.896484 55.3574 1.81055C56.248 2.73633 56.6992 3.87891 56.7109 5.23828V25.7695L53.8984 27L53.916 5.30859C53.916 4.72266 53.7227 4.22461 53.3359 3.81445C52.9492 3.4043 52.4922 3.19922 51.9648 3.19922C51.4141 3.19922 50.9453 3.4043 50.5586 3.81445C50.1602 4.23633 49.9609 4.72852 49.9609 5.29102V5.30859L49.9434 25.7695L47.1309 27L47.1484 5.30859C47.1484 4.72266 46.9551 4.22461 46.5684 3.81445C46.1816 3.4043 45.7246 3.19922 45.1973 3.19922C44.6582 3.19922 44.1895 3.4043 43.791 3.81445C43.3926 4.22461 43.1934 4.72266 43.1934 5.30859L43.1758 25.7695L40.3633 27ZM60.8242 27V8.26172C60.8242 6.10547 61.5977 4.26562 63.1445 2.74219C64.6914 1.20703 66.5605 0.439453 68.752 0.439453C70.9434 0.439453 72.8125 1.20703 74.3594 2.74219C75.9062 4.26562 76.6797 6.10547 76.6797 8.26172V25.7695L73.8672 27V15.1348H63.6367V25.7695L60.8242 27ZM63.6367 12.3223H73.8672V8.20898C73.8555 6.80273 73.3516 5.60742 72.3555 4.62305C71.3477 3.62695 70.1465 3.12891 68.752 3.12891C67.3457 3.12891 66.1387 3.62695 65.1309 4.62305C64.1348 5.60742 63.6367 6.78516 63.6367 8.15625V8.20898V12.3223ZM83.834 3.48047V23.959H88.9668H88.9844C90.3672 23.959 91.5684 23.4609 92.5879 22.4648C93.5957 21.4805 94.0996 20.2852 94.0996 18.8789V8.54297C94.0996 7.14844 93.5957 5.95312 92.5879 4.95703C91.5801 3.96094 90.3789 3.46289 88.9844 3.46289H88.9668L83.834 3.48047ZM88.9668 26.6484H81.0215V2.00391L83.834 0.773438H88.9668H88.9844C91.1758 0.773438 93.0449 1.54102 94.5918 3.07617C96.1387 4.59961 96.9121 6.43945 96.9121 8.5957V18.8262C96.9121 20.9824 96.1387 22.8281 94.5918 24.3633C93.0449 25.8867 91.1758 26.6484 88.9844 26.6484H88.9668ZM101.254 27V8.26172C101.254 6.10547 102.027 4.26562 103.574 2.74219C105.121 1.20703 106.99 0.439453 109.182 0.439453C111.373 0.439453 113.242 1.20703 114.789 2.74219C116.336 4.26562 117.109 6.10547 117.109 8.26172V25.7695L114.297 27V15.1348H104.066V25.7695L101.254 27ZM104.066 12.3223H114.297V8.20898C114.285 6.80273 113.781 5.60742 112.785 4.62305C111.777 3.62695 110.576 3.12891 109.182 3.12891C107.775 3.12891 106.568 3.62695 105.561 4.62305C104.564 5.60742 104.066 6.78516 104.066 8.15625V8.20898V12.3223ZM121.223 27V5.2207C121.223 3.9082 121.691 2.7832 122.629 1.8457C123.566 0.908203 124.697 0.439453 126.021 0.439453C127.393 0.439453 128.523 0.896484 129.414 1.81055C130.352 0.896484 131.477 0.439453 132.789 0.439453C134.195 0.439453 135.338 0.896484 136.217 1.81055C137.107 2.73633 137.559 3.87891 137.57 5.23828V25.7695L134.758 27L134.775 5.30859C134.775 4.72266 134.582 4.22461 134.195 3.81445C133.809 3.4043 133.352 3.19922 132.824 3.19922C132.273 3.19922 131.805 3.4043 131.418 3.81445C131.02 4.23633 130.82 4.72852 130.82 5.29102V5.30859L130.803 25.7695L127.99 27L128.008 5.30859C128.008 4.72266 127.814 4.22461 127.428 3.81445C127.041 3.4043 126.584 3.19922 126.057 3.19922C125.518 3.19922 125.049 3.4043 124.65 3.81445C124.252 4.22461 124.053 4.72266 124.053 5.30859L124.035 25.7695L121.223 27ZM149.594 11.0391C151.879 11.2969 153.748 12.1289 155.201 13.5352C156.748 15.0352 157.521 16.875 157.521 19.0547V19.1074C157.521 21.334 156.76 23.2031 155.236 24.7148C153.701 26.2383 151.832 27 149.629 27C147.402 27 145.533 26.2383 144.021 24.7148C142.475 23.1445 141.701 21.2988 141.701 19.1777V18.9492L144.514 17.7188V19.2305C144.514 20.6367 145.018 21.832 146.025 22.8164C147.033 23.8125 148.234 24.3105 149.629 24.3105C151.047 24.3105 152.254 23.8125 153.25 22.8164C154.246 21.8086 154.744 20.6074 154.744 19.2129C154.744 17.748 154.264 16.5586 153.303 15.6445C152.201 14.6016 151 14.0332 149.699 13.9395C147.473 13.7637 145.727 13.043 144.461 11.7773C143.148 10.4766 142.492 8.90625 142.492 7.06641C142.492 5.21484 143.137 3.65039 144.426 2.37305C145.715 1.08398 147.273 0.439453 149.102 0.439453C150.953 0.439453 152.518 1.08398 153.795 2.37305C155.096 3.68555 155.746 5.24414 155.746 7.04883V7.22461L152.934 8.49023V7.10156C152.91 6.01172 152.535 5.10938 151.809 4.39453C151.047 3.64453 150.145 3.26953 149.102 3.26953C148.059 3.26953 147.174 3.63281 146.447 4.35938C145.697 5.12109 145.322 6.02344 145.322 7.06641C145.322 8.10938 145.697 9.00586 146.447 9.75586C147.15 10.459 148.199 10.8867 149.594 11.0391Z" fill="#F8EEEF"/>
    </g>
</svg>
