<svg width="41" height="36" viewBox="0 0 41 36" fill="none" xmlns="http://www.w3.org/2000/svg">
<path d="M17.4979 2.71616L16.0112 0.21051C5.71827 7.79009 0 16.9983 0 24.5779C0 31.9069 4.91771 35.3522 9.09205 35.3522C14.3529 35.3522 18.0697 30.4662 18.0697 25.3296C18.0697 21.0074 15.5537 17.3116 12.1799 15.9334C11.2078 15.5576 10.2929 15.2444 10.2929 13.4278C10.2929 11.1101 11.8368 7.66481 17.4979 2.71616ZM40.1994 2.71616L38.7127 0.21051C28.5342 7.79009 22.7015 16.9983 22.7015 24.5779C22.7015 31.9069 27.7336 35.3522 31.908 35.3522C37.2259 35.3522 41 30.4662 41 25.3296C41 21.0074 38.4268 17.3116 34.9386 15.9334C33.9665 15.5576 33.1088 15.2444 33.1088 13.4278C33.1088 11.1101 34.7099 7.66481 40.1994 2.71616Z" fill="#FEC5CE"/>
</svg>
